<svg width="30" height="41" viewBox="0 0 30 41" fill="none" xmlns="http://www.w3.org/2000/svg">
<path d="M17.5 11.125V0.5H1.875C0.835938 0.5 0 1.33594 0 2.375V38.625C0 39.6641 0.835938 40.5 1.875 40.5H28.125C29.1641 40.5 30 39.6641 30 38.625V13H19.375C18.3438 13 17.5 12.1562 17.5 11.125ZM10 22.375C10 22.7203 9.72031 23 9.375 23H8.75C8.05937 23 7.5 23.5594 7.5 24.25V26.75C7.5 27.4406 8.05937 28 8.75 28H9.375C9.72031 28 10 28.2797 10 28.625V29.875C10 30.2203 9.72031 30.5 9.375 30.5H8.75C6.67891 30.5 5 28.8211 5 26.75V24.25C5 22.1789 6.67891 20.5 8.75 20.5H9.375C9.72031 20.5 10 20.7797 10 21.125V22.375ZM13.4586 30.5H12.5C12.1547 30.5 11.875 30.2203 11.875 29.875V28.625C11.875 28.2797 12.1547 28 12.5 28H13.4586C13.9234 28 14.2719 27.7266 14.2719 27.4828C14.2719 27.3813 14.2133 27.275 14.1062 27.1828L12.3961 25.7164C11.7344 25.1523 11.3547 24.3508 11.3547 23.518C11.3547 21.8539 12.8406 20.5008 14.668 20.5008H15.625C15.9703 20.5008 16.25 20.7805 16.25 21.1258V22.3758C16.25 22.7211 15.9703 23.0008 15.625 23.0008H14.6664C14.2016 23.0008 13.8531 23.2742 13.8531 23.518C13.8531 23.6195 13.9117 23.7258 14.0188 23.818L15.7289 25.2844C16.3906 25.8484 16.7703 26.65 16.7703 27.4828C16.7711 29.1461 15.2859 30.5 13.4586 30.5ZM20 21.125V22.75C20 24.3336 20.4453 25.8883 21.25 27.1937C22.0547 25.8891 22.5 24.3336 22.5 22.75V21.125C22.5 20.7797 22.7797 20.5 23.125 20.5H24.375C24.7203 20.5 25 20.7797 25 21.125V22.75C25 25.5219 23.9937 28.132 22.1656 30.1008C21.9297 30.3547 21.5977 30.5 21.25 30.5C20.9023 30.5 20.5703 30.3547 20.3344 30.1008C18.5063 28.132 17.5 25.5219 17.5 22.75V21.125C17.5 20.7797 17.7797 20.5 18.125 20.5H19.375C19.7203 20.5 20 20.7797 20 21.125ZM29.4531 8.70312L21.8047 1.04688C21.4531 0.695312 20.9766 0.5 20.4766 0.5H20V10.5H30V10.0234C30 9.53125 29.8047 9.05469 29.4531 8.70312Z" fill="#2E604A"/>
</svg>
