<svg width="30" height="40" viewBox="0 0 30 40" fill="none" xmlns="http://www.w3.org/2000/svg">
<g clip-path="url(#clip0_1899_4216)">
<path d="M17.5 10.625V0H1.875C0.835938 0 0 0.835938 0 1.875V38.125C0 39.1641 0.835938 40 1.875 40H28.125C29.1641 40 30 39.1641 30 38.125V12.5H19.375C18.3438 12.5 17.5 11.6562 17.5 10.625ZM10 21.875C10 22.2203 9.72031 22.5 9.375 22.5H8.75C8.05937 22.5 7.5 23.0594 7.5 23.75V26.25C7.5 26.9406 8.05937 27.5 8.75 27.5H9.375C9.72031 27.5 10 27.7797 10 28.125V29.375C10 29.7203 9.72031 30 9.375 30H8.75C6.67891 30 5 28.3211 5 26.25V23.75C5 21.6789 6.67891 20 8.75 20H9.375C9.72031 20 10 20.2797 10 20.625V21.875ZM13.4586 30H12.5C12.1547 30 11.875 29.7203 11.875 29.375V28.125C11.875 27.7797 12.1547 27.5 12.5 27.5H13.4586C13.9234 27.5 14.2719 27.2266 14.2719 26.9828C14.2719 26.8813 14.2133 26.775 14.1062 26.6828L12.3961 25.2164C11.7344 24.6523 11.3547 23.8508 11.3547 23.018C11.3547 21.3539 12.8406 20.0008 14.668 20.0008H15.625C15.9703 20.0008 16.25 20.2805 16.25 20.6258V21.8758C16.25 22.2211 15.9703 22.5008 15.625 22.5008H14.6664C14.2016 22.5008 13.8531 22.7742 13.8531 23.018C13.8531 23.1195 13.9117 23.2258 14.0188 23.318L15.7289 24.7844C16.3906 25.3484 16.7703 26.15 16.7703 26.9828C16.7711 28.6461 15.2859 30 13.4586 30ZM20 20.625V22.25C20 23.8336 20.4453 25.3883 21.25 26.6937C22.0547 25.3891 22.5 23.8336 22.5 22.25V20.625C22.5 20.2797 22.7797 20 23.125 20H24.375C24.7203 20 25 20.2797 25 20.625V22.25C25 25.0219 23.9937 27.632 22.1656 29.6008C21.9297 29.8547 21.5977 30 21.25 30C20.9023 30 20.5703 29.8547 20.3344 29.6008C18.5063 27.632 17.5 25.0219 17.5 22.25V20.625C17.5 20.2797 17.7797 20 18.125 20H19.375C19.7203 20 20 20.2797 20 20.625ZM29.4531 8.20312L21.8047 0.546875C21.4531 0.195312 20.9766 0 20.4766 0H20V10H30V9.52344C30 9.03125 29.8047 8.55469 29.4531 8.20312Z" fill="#2E604A"/>
</g>
<defs>
<clipPath id="clip0_1899_4216">
<rect width="30" height="40" fill="white"/>
</clipPath>
</defs>
</svg>
