<svg width="64" height="64" viewBox="0 0 64 64" fill="none" xmlns="http://www.w3.org/2000/svg">
<mask id="mask0_1535_3854" style="mask-type:luminance" maskUnits="userSpaceOnUse" x="0" y="0" width="64" height="64">
<path d="M0 0H64V64H0V0Z" fill="white"/>
</mask>
<g mask="url(#mask0_1535_3854)">
<path d="M24.9782 64.0075C25.7256 64.0047 26.4375 63.6564 26.9084 63.058L41.5894 44.492C42.1972 43.7167 43.0953 43.2475 44.0591 43.1801C47.7279 42.9329 49.2092 47.9361 46.0249 49.8239L45.8661 49.9194C42.4327 51.9195 38.9993 53.9225 35.5686 55.9226C35.2948 56.08 35.0539 56.2935 34.8568 56.5435L32.346 59.7375C31.0236 61.4203 32.1927 63.9233 34.2982 63.9176C37.9288 63.9092 41.5593 63.9036 45.1898 63.8924C45.9537 63.8924 46.6738 63.5328 47.1502 62.9147L50.83 58.1335C51.2928 57.5295 51.4707 56.7429 51.3092 55.9901L46.3151 32.64C46.1043 31.668 46.3097 30.6567 46.8545 29.8392C48.9545 26.7435 53.6912 28.6734 53.1436 32.4068L53.1162 32.595C52.5002 36.5953 51.8842 40.5956 51.2681 44.5959C51.2216 44.9162 51.2298 45.2421 51.2982 45.5539L52.1662 49.5598C52.6234 51.6695 55.2628 52.2932 56.5716 50.602C58.6661 47.8939 61.3575 44.4161 63.3453 41.8513C63.8217 41.2361 63.9969 40.4327 63.8217 39.6686L62.4719 33.7356C62.2994 32.9855 61.8093 32.3534 61.1385 32.0163L40.2286 21.4622C39.358 21.0267 38.7118 20.2317 38.4325 19.285C37.3812 15.6696 41.8057 13.0739 44.3082 15.8409L44.4369 15.9814C47.1009 18.9676 49.765 21.9566 52.429 24.9456C52.6426 25.1815 52.8972 25.3754 53.1792 25.5186L56.7714 27.3193C58.6661 28.2688 60.7826 26.5384 60.3116 24.4343C59.4957 20.8048 58.6798 17.1753 57.8666 13.5458C57.6941 12.7817 57.1903 12.1412 56.5004 11.8041L51.1367 9.18874C50.4604 8.85726 49.6746 8.85445 48.9956 9.18312L27.9187 19.3749C27.0399 19.8019 26.0323 19.8244 25.137 19.4592C21.7282 18.049 22.5085 12.88 26.1747 12.5991L26.3608 12.5851C30.298 12.3098 34.238 12.0345 38.1752 11.7592C38.4873 11.7395 38.7967 11.6552 39.0787 11.5176L42.6928 9.75901C44.5957 8.83197 44.6012 6.05648 42.6983 5.12102C39.4237 3.51134 36.1518 1.90448 32.8799 0.294806C32.19 -0.0422981 31.385 -0.0394892 30.7005 0.303234L25.3615 2.97479C24.6879 3.30908 24.1951 3.94115 24.0254 4.69121L18.648 27.9514C18.429 28.9206 17.8157 29.7437 16.9778 30.2353C13.7772 32.0894 10.3273 28.2408 12.3972 25.1225L12.4985 24.9652C14.7464 21.6335 16.9943 18.3046 19.2394 14.9757C19.4174 14.7088 19.546 14.4111 19.6172 14.0964L20.529 10.1017C21.0081 7.99764 18.8972 6.26155 16.9997 7.20545C13.9661 8.71118 10.0727 10.6467 7.19782 12.0738C6.51059 12.4165 6.01228 13.0626 5.84801 13.8267L4.55569 19.7738C4.39141 20.5267 4.56664 21.3133 5.02936 21.9201L19.4009 40.7333C20.0033 41.5142 20.247 42.5199 20.0991 43.4975C19.5187 47.2197 14.4315 47.5905 13.3473 43.9835L13.2925 43.8009C12.1563 39.9242 11.0173 36.0447 9.88103 32.1652C9.79068 31.8562 9.64283 31.5697 9.44843 31.3168L6.97331 28.0919C5.6673 26.3951 3.0279 27.0075 2.56519 29.1172C1.7657 32.7495 0.966215 36.3818 0.16399 40.0141C-0.00576318 40.781 0.174943 41.5817 0.654086 42.1941L4.38046 46.9388C4.85413 47.5372 5.56052 47.8883 6.31072 47.8939L29.6108 48.0934C30.5801 48.099 31.5 48.5288 32.1516 49.2592C34.6268 52.0488 31.7355 56.3553 28.313 54.9788L28.1405 54.9085C24.4771 53.4056 20.811 51.8971 17.1476 50.3913C16.8546 50.2705 16.5452 50.2087 16.2304 50.2087L12.2329 50.1834C10.1247 50.1722 8.94465 52.6724 10.2616 54.3579C12.5314 57.2654 14.8012 60.173 17.0709 63.0805C17.5473 63.6929 18.2729 64.0469 19.0368 64.044L24.9782 64.0131V64.0075ZM18.3057 35.8621L20.351 25.8024C20.5071 25.0383 20.9944 24.3865 21.6734 24.0354L30.6129 19.4002C31.2947 19.049 32.0941 19.0322 32.7868 19.3581L41.8878 23.6393C42.5833 23.968 43.0926 24.6 43.276 25.3585L45.6881 35.3284C45.8716 36.0869 45.7073 36.8903 45.2446 37.5111L39.1471 45.6634C38.6844 46.2871 37.9698 46.6551 37.2087 46.6691L27.1959 46.8658C26.4348 46.8798 25.7065 46.5371 25.2191 45.9359L18.8287 38.0224C18.3441 37.4212 18.1497 36.6234 18.3057 35.8593V35.8621Z" fill="#2E604A"/>
</g>
</svg>
