<svg width="16" height="16" viewBox="0 0 16 16" fill="none" xmlns="http://www.w3.org/2000/svg">
<path d="M10.6667 4.00065V3.46732C10.6667 2.72058 10.6667 2.34721 10.5213 2.062C10.3935 1.81111 10.1895 1.60714 9.93865 1.47931C9.65344 1.33398 9.28007 1.33398 8.53333 1.33398H7.46667C6.71993 1.33398 6.34656 1.33398 6.06135 1.47931C5.81046 1.60714 5.60649 1.81111 5.47866 2.062C5.33333 2.34721 5.33333 2.72058 5.33333 3.46732V4.00065M6.66667 7.66732V11.0007M9.33333 7.66732V11.0007M2 4.00065H14M12.6667 4.00065V11.4673C12.6667 12.5874 12.6667 13.1475 12.4487 13.5753C12.2569 13.9516 11.951 14.2576 11.5746 14.4493C11.1468 14.6673 10.5868 14.6673 9.46667 14.6673H6.53333C5.41323 14.6673 4.85318 14.6673 4.42535 14.4493C4.04903 14.2576 3.74307 13.9516 3.55132 13.5753C3.33333 13.1475 3.33333 12.5874 3.33333 11.4673V4.00065" stroke="#C50700" stroke-width="1.66667" stroke-linecap="round" stroke-linejoin="round"/>
</svg>
