<svg width="48" height="49" viewBox="0 0 48 49" fill="none" xmlns="http://www.w3.org/2000/svg">
<rect width="48" height="48" transform="translate(0 0.650391)" fill="white"/>
<path d="M24 39.1504V26.6504M24 26.6504L29 31.6504M24 26.6504L19 31.6504M14.75 39.1504H9.5C7.29086 39.1504 5.5 37.3595 5.5 35.1504V12.1504C5.5 9.94125 7.29086 8.15039 9.5 8.15039H17.8593C19.1967 8.15039 20.4456 8.8188 21.1875 9.93159L23.4063 13.2598C23.7772 13.8162 24.4017 14.1504 25.0704 14.1504H38.5C40.7091 14.1504 42.5 15.9413 42.5 18.1504V35.1504C42.5 37.3595 40.7091 39.1504 38.5 39.1504H33.25" stroke="#678E82" stroke-width="3" stroke-linecap="round" stroke-linejoin="round"/>
</svg>
